<?xml version="1.0" encoding="UTF-8"?>
<svg id="Layer_2" data-name="Layer 2" xmlns="http://www.w3.org/2000/svg" xmlns:xlink="http://www.w3.org/1999/xlink" viewBox="0 0 266.34 81.72">
  <defs>
    <style>
      .cls-1 {
        fill: url(#linear-gradient-7);
      }

      .cls-2 {
        fill: url(#linear-gradient-5);
      }

      .cls-3 {
        fill: url(#linear-gradient-6);
      }

      .cls-4 {
        fill: url(#linear-gradient-4);
      }

      .cls-5 {
        fill: url(#linear-gradient-3);
      }

      .cls-6 {
        fill: url(#linear-gradient-2);
      }

      .cls-7 {
        fill: url(#linear-gradient);
      }
    </style>
    <linearGradient id="linear-gradient" x1="42.92" y1="66.38" x2="42.92" y2="4.91" gradientUnits="userSpaceOnUse">
      <stop offset="0" stop-color="#fb6fbb"/>
      <stop offset="1" stop-color="#ff9085"/>
    </linearGradient>
    <linearGradient id="linear-gradient-2" x1="98.62" y1="65.8" x2="98.62" y2="21.53" xlink:href="#linear-gradient"/>
    <linearGradient id="linear-gradient-3" x1="144.61" y1="65.8" x2="144.61" y2="2.79" xlink:href="#linear-gradient"/>
    <linearGradient id="linear-gradient-4" x1="175.18" y1="64.51" x2="175.18" y2="0" xlink:href="#linear-gradient"/>
    <linearGradient id="linear-gradient-5" x1="194.11" y1="64.51" x2="194.11" y2="2.62" xlink:href="#linear-gradient"/>
    <linearGradient id="linear-gradient-6" x1="232.62" y1="81.72" x2="232.62" y2="22.9" xlink:href="#linear-gradient"/>
    <linearGradient id="linear-gradient-7" x1="258.72" y1="64.93" x2="258.72" y2="49.96" xlink:href="#linear-gradient"/>
  </defs>
  <g id="Layer_1-2" data-name="Layer 1">
    <g>
      <path class="cls-7" d="M14.05,4.91l10.56,31.67,13.05-31.67h10.52l13.14,31.67,10.48-31.67h14.05l-22.9,61.48h-1.95l-18.08-43.6-17.96,43.6h-2.04L0,4.91h14.05Z"/>
      <path class="cls-6" d="M80.41,31.97c1.91-3.38,4.49-5.96,7.73-7.73,3.27-1.8,6.87-2.7,10.81-2.7,6.46,0,11.51,2.04,15.17,6.11,3.69,4.05,5.53,9.35,5.53,15.92,0,1.44-.06,2.6-.17,3.49h-29.47c.14,2.69,1.26,4.85,3.37,6.48,2.13,1.58,4.59,2.37,7.36,2.37,5.38,0,10.65-1.7,15.84-5.11v10.31c-2.27,1.44-4.74,2.58-7.4,3.41-2.66.86-5.89,1.29-9.69,1.29-4.07,0-7.74-.85-10.99-2.56s-5.9-4.27-7.92-7.71c-2-3.44-2.99-7.48-2.99-12.14,0-4.3.94-8.11,2.83-11.43ZM107.64,39.07c-.14-2.13-.96-3.95-2.45-5.45-1.44-1.5-3.52-2.24-6.24-2.24-2.44,0-4.46.78-6.07,2.33-1.58,1.52-2.44,3.31-2.58,5.36h17.33Z"/>
      <path class="cls-5" d="M123.04,2.79h11.93v23.07c3.16-2.88,7.04-4.32,11.64-4.32,3.91,0,7.36,1.01,10.35,3.03,3.05,2,5.33,4.66,6.86,7.98,1.58,3.3,2.37,6.97,2.37,11.02s-.78,7.78-2.35,11.12c-1.57,3.34-3.86,6.03-6.88,8.08-2.99,2.02-6.44,3.03-10.35,3.03-4.32,0-8.2-1.48-11.64-4.45v3.16h-11.93V2.79ZM143.82,54.54c2.97,0,5.38-.98,7.23-2.95,1.86-2,2.79-4.67,2.79-8.02s-.94-5.93-2.83-7.9c-1.83-2-4.23-2.99-7.19-2.99-3.44,0-6.39,1.51-8.85,4.53v12.84c2.41,2.99,5.36,4.49,8.85,4.49Z"/>
      <path class="cls-4" d="M169.82,2.04c1.41-1.36,3.2-2.04,5.36-2.04s3.95.68,5.36,2.04c1.41,1.36,2.12,3.12,2.12,5.28s-.72,3.87-2.16,5.28c-1.41,1.36-3.19,2.04-5.32,2.04s-3.89-.68-5.36-2.04c-1.41-1.41-2.12-3.17-2.12-5.28s.71-3.92,2.12-5.28ZM169.32,22.9h11.89v41.61h-11.89V22.9Z"/>
      <path class="cls-2" d="M179.93,22.9h7.15v-5.82c0-4.54,1.4-8.09,4.2-10.64,2.8-2.55,6.36-3.82,10.68-3.82,2.16,0,4.27.26,6.32.79v10.43c-1.11-.22-2.16-.33-3.16-.33-1.94,0-3.46.49-4.57,1.48s-1.66,2.52-1.66,4.59v3.33h9.23v9.85h-9.23v31.76h-11.89v-31.76h-7.07v-9.85Z"/>
      <path class="cls-3" d="M221.48,22.9l11.31,25.11,10.97-25.11h13.22l-26.15,58.82-13.18-.08,9.1-20.2-18.5-38.53h13.22Z"/>
      <path class="cls-1" d="M253.25,52.17c1.47-1.47,3.28-2.2,5.45-2.2s4.03.72,5.45,2.16c1.47,1.41,2.2,3.19,2.2,5.32s-.73,3.88-2.2,5.32c-1.41,1.44-3.23,2.16-5.45,2.16s-3.98-.72-5.45-2.16c-1.44-1.47-2.16-3.24-2.16-5.32s.72-3.84,2.16-5.28Z"/>
    </g>
  </g>
</svg>